<svg width="207" height="34" viewBox="0 0 207 34" fill="none" xmlns="http://www.w3.org/2000/svg">
<path fill-rule="evenodd" clip-rule="evenodd" d="M16.6481 30.3965C9.40945 30.3965 3.2308 23.843 3.2308 16.6948C3.2308 9.57316 9.28013 2.88949 16.5961 2.88949C21.4053 2.88949 24.8682 5.2119 27.6867 8.85051H31.2281C30.1681 6.94074 29.0308 5.18652 27.2988 3.81845C24.3255 1.41882 20.4735 0 16.6481 0C7.47074 0 0 7.56078 0 16.6695C0 25.8035 7.57464 33.287 16.7 33.287C20.4227 33.287 24.068 31.9201 26.9893 29.6231C28.8252 28.1524 30.1173 26.2426 31.3586 24.281H27.8172C25.0241 27.9196 21.4573 30.3965 16.6481 30.3965ZM53.3574 12.979C51.1346 10.1149 48.1094 8.3088 44.3614 8.3088C37.64 8.3088 32.108 13.7546 32.108 20.4636C32.108 27.1716 37.6665 32.6681 44.3614 32.6681C48.2653 32.6681 50.9788 31.0419 53.3574 28.0487V32.1253H56.2787V8.87588H53.3574V12.979ZM44.2066 29.9838C39.0614 29.9838 35.0027 25.52 35.0027 20.489C35.0027 15.4823 39.036 10.9931 44.2066 10.9931C49.3507 10.9931 53.3574 15.4834 53.3574 20.489C53.3574 25.52 49.3242 29.9838 44.2066 29.9838ZM59.8201 32.1253H62.9492V0.669693H59.8201V32.1253ZM74.7627 28.4348L66.8521 8.87588H63.7495L73.2374 32.1253H76.3908L85.8533 8.87588H82.8027L74.7627 28.4348ZM87.1454 32.1253H90.2734V8.87588H87.1454V32.1253ZM87.1454 5.88269H90.2734V0.669693H87.1454V5.88269ZM103.743 8.30769C100.795 8.30769 98.7014 9.8567 96.7627 11.9209V8.87588H93.8668V32.1253H96.9428V17.9581C96.9174 14.2169 100.019 10.992 103.794 10.992C108.523 10.992 110.902 15.0951 110.902 19.3272V32.1264H113.797V19.3272C113.798 13.289 110.257 8.30769 103.743 8.30769ZM142.829 0.669693L128.611 18.7072V0.669693H125.535V32.1253H128.611V23.4811L132.644 18.4755L142.907 32.1253H146.812L134.608 15.9976L146.812 0.669693H142.829ZM147.948 32.1253H151V0.669693H147.948V32.1253ZM176.256 14.7332C174.136 10.7846 169.896 8.30769 165.423 8.30769C158.755 8.30769 153.118 13.8561 153.118 20.5133C153.118 27.2212 158.806 32.667 165.477 32.667C168.655 32.667 171.785 31.4026 174.084 29.2093C175.481 27.8931 176.308 26.2415 177.056 24.5127H173.775C172.119 27.7387 169.198 29.9827 165.422 29.9827C163.123 29.9827 160.874 29.0538 159.168 27.4794C157.408 25.8807 156.634 23.918 156.297 21.5967H177.781C177.783 19.1717 177.445 16.8493 176.256 14.7332ZM156.402 18.9135C157.334 14.5534 160.771 10.992 165.477 10.992C169.432 10.992 173.672 13.4181 174.603 18.9135H156.402ZM180.057 32.1253H183.132V8.87588H180.057V32.1253ZM180.057 5.9864H183.132V0.669693H180.057V5.9864ZM196.654 8.30769C193.654 8.30769 191.56 9.8567 189.595 11.9209V8.87588H186.648V32.1253H189.751V17.9581C189.725 14.1915 192.905 10.992 196.704 10.992C201.411 10.992 203.893 15.0951 203.893 19.3272V32.1264H206.788V19.3272C206.788 13.289 203.193 8.30769 196.654 8.30769Z" fill="white"/>
</svg>
