<svg width="167" height="34" viewBox="0 0 167 34" fill="none" xmlns="http://www.w3.org/2000/svg">
<path fill-rule="evenodd" clip-rule="evenodd" d="M150.179 1.1149H166.482V3.70786C166.008 3.54914 165.512 3.46733 165.013 3.46554H155.642V15.5819H164.758C165.413 15.5819 165.996 15.5101 166.481 15.3879V17.9694C166.068 17.8728 165.499 17.8238 164.794 17.8238H155.642V30.3522H164.733C165.232 30.3522 165.826 30.2797 166.481 30.122V32.9089H150.203C150.333 32.4188 150.399 31.9138 150.398 31.4067V2.65334C150.398 2.02375 150.325 1.50289 150.179 1.1149ZM146.405 9.3663L141.695 9.33077C141.464 6.68879 139.947 4.13137 136.609 3.66025C129.459 3.01787 127.444 10.8564 127.626 16.588C127.809 22.1129 128.694 30.6066 136.075 30.6066C139.171 30.6066 142.144 27.4317 142.047 24.7542L146.405 24.7186C146.089 30.2435 139.741 33.4419 136.718 33.5513C126.389 33.903 122.066 27.0323 121.848 17.229C121.654 8.34944 125.296 0.460449 135.504 0.460449C144.244 0.58196 145.931 5.7437 146.405 9.3663ZM72.9408 29.2977L76.0611 26.6927C77.687 29.3709 79.0225 30.5938 82.2517 30.5938C85.5286 30.5938 88.285 28.607 88.285 25.0938C88.285 23.3607 87.5802 21.9431 86.1849 20.8772C85.5528 20.3798 83.951 19.52 81.4259 18.3205C77.6507 16.5156 73.9731 14.1642 73.9731 9.43949C73.9731 3.47762 79.0467 0.848433 84.3995 0.65373C87.5681 0.53293 91.5014 2.27885 93.091 4.2408L89.9231 6.676C89.3581 5.62353 88.5181 4.74342 87.4923 4.12912C86.4665 3.51482 85.2932 3.18926 84.0969 3.18699C80.0541 3.18699 76.8498 7.86411 80.2 11.0874C81.0493 11.9109 82.7863 12.9285 85.4324 14.1401C89.6561 16.1155 93.2612 18.4775 93.2612 23.7004C93.2612 25.5053 92.7878 27.1894 91.853 28.7285C89.9722 31.8302 86.8278 33.3815 82.4339 33.3815C77.3838 33.3815 76.3892 32.2303 72.9408 29.2977ZM28.4893 1.1149H44.7782V3.70786C44.3051 3.5492 43.8094 3.46739 43.3103 3.46554H33.9396V15.5819H43.0554C43.7111 15.5819 44.2941 15.5101 44.7789 15.3879V17.9694C44.366 17.8728 43.7958 17.8238 43.1046 17.8238H33.9396V30.3522H43.0312C43.5289 30.3522 44.124 30.2797 44.7789 30.122V32.9089H28.5143C28.6332 32.417 28.6941 31.9128 28.6958 31.4067V2.65334C28.6958 2.02375 28.6225 1.50289 28.4893 1.1149ZM0 1.1149H5.92368V1.40625C5.92368 1.67272 6.0084 2.02375 6.15434 2.47214L14.5049 27.5653L23.0754 2.3627C23.2085 1.93919 23.2818 1.52705 23.2818 1.1149H26.1586C25.8674 1.62369 25.6489 2.07278 25.515 2.47214L15.7308 31.6128C15.6339 31.8914 15.5492 32.3277 15.4766 32.9096H10.6208C10.5474 32.4691 10.4379 32.0354 10.2933 31.6128L0.704065 2.70237C0.482555 2.16918 0.251627 1.63995 0.0113903 1.1149H0ZM62.9145 17.6909C66.7986 16.927 69.7729 13.9589 69.7729 9.71804C69.7729 4.15553 65.1114 1.11419 59.8918 1.11419H50.3509C50.4841 1.59953 50.5574 2.10831 50.5574 2.64126V31.3812C50.5574 31.9994 50.4841 32.5202 50.3509 32.9082H56.0319C55.8929 32.4111 55.8235 31.8972 55.8254 31.3812V18.1755L57.6457 18.3695L67.1631 32.9082H72.8803L62.9145 17.6909ZM61.9314 15.2678C60.8998 15.994 59.6611 16.3571 58.2409 16.3571H55.8133V3.43072H57.986C59.8441 3.43072 61.2878 3.89048 62.32 4.81069C63.7282 6.08408 64.4443 7.80442 64.4443 9.96107C64.4443 12.2875 63.6064 14.0569 61.9314 15.2685M120.901 31.5886L110.293 2.16942C110.175 1.82927 110.105 1.47431 110.086 1.1149H105.497C105.497 1.49081 105.436 1.89016 105.29 2.29022L95.0096 31.5886C94.875 32.0115 94.6572 32.4485 94.366 32.9089H97.3275C97.3161 32.4243 97.3766 31.9759 97.5105 31.5886L100.556 22.9486H112.27L115.281 31.5894C115.439 32.0605 115.511 32.4968 115.511 32.9089H121.654C121.301 32.4122 121.047 31.9638 120.901 31.5886ZM101.358 20.61L106.31 6.25249L111.397 20.61H101.358Z" fill="white"/>
</svg>
